<svg xmlns="http://www.w3.org/2000/svg" viewBox="0 0 512 512">
<rect width="512" height="512" rx="116" fill="#E4572E"/>
<circle cx="256.0" cy="274.0" r="150.0" fill="#9C5B12"/>
<circle cx="256.0" cy="256.0" r="150.0" fill="#F5B83D"/>
<circle cx="392.0" cy="256.0" r="7.0" fill="#C98318"/><circle cx="388.6" cy="286.3" r="7.0" fill="#C98318"/><circle cx="378.5" cy="315.0" r="7.0" fill="#C98318"/><circle cx="362.3" cy="340.8" r="7.0" fill="#C98318"/><circle cx="340.8" cy="362.3" r="7.0" fill="#C98318"/><circle cx="315.0" cy="378.5" r="7.0" fill="#C98318"/><circle cx="286.3" cy="388.6" r="7.0" fill="#C98318"/><circle cx="256.0" cy="392.0" r="7.0" fill="#C98318"/><circle cx="225.7" cy="388.6" r="7.0" fill="#C98318"/><circle cx="197.0" cy="378.5" r="7.0" fill="#C98318"/><circle cx="171.2" cy="362.3" r="7.0" fill="#C98318"/><circle cx="149.7" cy="340.8" r="7.0" fill="#C98318"/><circle cx="133.5" cy="315.0" r="7.0" fill="#C98318"/><circle cx="123.4" cy="286.3" r="7.0" fill="#C98318"/><circle cx="120.0" cy="256.0" r="7.0" fill="#C98318"/><circle cx="123.4" cy="225.7" r="7.0" fill="#C98318"/><circle cx="133.5" cy="197.0" r="7.0" fill="#C98318"/><circle cx="149.7" cy="171.2" r="7.0" fill="#C98318"/><circle cx="171.2" cy="149.7" r="7.0" fill="#C98318"/><circle cx="197.0" cy="133.5" r="7.0" fill="#C98318"/><circle cx="225.7" cy="123.4" r="7.0" fill="#C98318"/><circle cx="256.0" cy="120.0" r="7.0" fill="#C98318"/><circle cx="286.3" cy="123.4" r="7.0" fill="#C98318"/><circle cx="315.0" cy="133.5" r="7.0" fill="#C98318"/><circle cx="340.8" cy="149.7" r="7.0" fill="#C98318"/><circle cx="362.3" cy="171.2" r="7.0" fill="#C98318"/><circle cx="378.5" cy="197.0" r="7.0" fill="#C98318"/><circle cx="388.6" cy="225.7" r="7.0" fill="#C98318"/>
<circle cx="256.0" cy="256.0" r="112.0" fill="none" stroke="#C98318" stroke-width="10.0"/>
<path d="M159.9 216.2 A 104.0 104.0 0 0 1 216.2 159.9" fill="none" stroke="#FFE3A1" stroke-width="14.0" stroke-linecap="round"/>
<polygon points="178.0,256.0 181.2,250.8 184.5,246.7 187.8,243.2 191.0,239.9 194.2,237.0 197.5,234.2 200.8,231.7 204.0,229.3 207.2,227.1 210.5,225.1 213.8,223.2 217.0,221.5 220.2,220.0 223.5,218.6 226.8,217.3 230.0,216.2 233.2,215.2 236.5,214.3 239.8,213.6 243.0,213.0 246.2,212.6 249.5,212.3 252.8,212.1 256.0,212.0 259.2,212.1 262.5,212.3 265.8,212.6 269.0,213.0 272.2,213.6 275.5,214.3 278.8,215.2 282.0,216.2 285.2,217.3 288.5,218.6 291.8,220.0 295.0,221.5 298.2,223.2 301.5,225.1 304.8,227.1 308.0,229.3 311.2,231.7 314.5,234.2 317.8,237.0 321.0,239.9 324.2,243.2 327.5,246.7 330.8,250.8 334.0,256.0 330.8,261.2 327.5,265.3 324.2,268.8 321.0,272.1 317.8,275.0 314.5,277.8 311.2,280.3 308.0,282.7 304.8,284.9 301.5,286.9 298.2,288.8 295.0,290.5 291.8,292.0 288.5,293.4 285.2,294.7 282.0,295.8 278.8,296.8 275.5,297.7 272.2,298.4 269.0,299.0 265.8,299.4 262.5,299.7 259.2,299.9 256.0,300.0 252.8,299.9 249.5,299.7 246.2,299.4 243.0,299.0 239.8,298.4 236.5,297.7 233.2,296.8 230.0,295.8 226.8,294.7 223.5,293.4 220.2,292.0 217.0,290.5 213.8,288.8 210.5,286.9 207.2,284.9 204.0,282.7 200.8,280.3 197.5,277.8 194.2,275.0 191.0,272.1 187.8,268.8 184.5,265.3 181.2,261.2" fill="#FFF8EC" stroke="#C98318" stroke-width="6.0" stroke-linejoin="round"/>
<circle cx="256.0" cy="256.0" r="31.0" fill="#8A4B12"/>
<circle cx="256.0" cy="256.0" r="15.0" fill="#2A1A10"/>
<circle cx="265.0" cy="246.0" r="7.0" fill="#fff"/>
<polygon points="446.0,106.0 445.4,106.0 443.7,106.3 441.1,107.0 437.5,108.2 433.4,110.2 429.0,112.9 424.5,116.2 420.1,120.1 416.2,124.5 412.9,129.0 410.2,133.4 408.2,137.5 407.0,141.1 406.3,143.7 406.0,145.4 406.0,146.0 406.0,145.4 405.7,143.7 405.0,141.1 403.8,137.5 401.8,133.4 399.1,129.0 395.8,124.5 391.9,120.1 387.5,116.2 383.0,112.9 378.6,110.2 374.5,108.2 370.9,107.0 368.3,106.3 366.6,106.0 366.0,106.0 366.6,106.0 368.3,105.7 370.9,105.0 374.5,103.8 378.6,101.8 383.0,99.1 387.5,95.8 391.9,91.9 395.8,87.5 399.1,83.0 401.8,78.6 403.8,74.5 405.0,70.9 405.7,68.3 406.0,66.6 406.0,66.0 406.0,66.6 406.3,68.3 407.0,70.9 408.2,74.5 410.2,78.6 412.9,83.0 416.2,87.5 420.1,91.9 424.5,95.8 429.0,99.1 433.4,101.8 437.5,103.8 441.1,105.0 443.7,105.7 445.4,106.0" fill="#FFF4E4"/>
</svg>